0
SECTION
2
HEADER
9
$INSUNITS
70
4
9
$ACADVER
1
AC1014
9
$HANDSEED
5
FFFF
0
ENDSEC
0
SECTION
2
TABLES
0
TABLE
2
VPORT
5
8
100
AcDbSymbolTable
0
ENDTAB
0
TABLE
2
LTYPE
5
5
100
AcDbSymbolTable
0
LTYPE
5
14
100
AcDbSymbolTableRecord
100
AcDbLinetypeTableRecord
2
BYBLOCK
70
0
0
LTYPE
5
15
100
AcDbSymbolTableRecord
100
AcDbLinetypeTableRecord
2
BYLAYER
70
0
0
ENDTAB
0
TABLE
2
LAYER
5
2
100
AcDbSymbolTable
70
2
0
LAYER
5
50
100
AcDbSymbolTableRecord
100
AcDbLayerTableRecord
2
0
70
0
6
CONTINUOUS
0
ENDTAB
0
TABLE
2
STYLE
5
3
100
AcDbSymbolTable
70
1
0
STYLE
5
11
100
AcDbSymbolTableRecord
100
AcDbTextStyleTableRecord
2
STANDARD
70
0
0
ENDTAB
0
TABLE
2
VIEW
5
6
100
AcDbSymbolTable
70
0
0
ENDTAB
0
TABLE
2
UCS
5
7
100
AcDbSymbolTable
70
0
0
ENDTAB
0
TABLE
2
APPID
5
9
100
AcDbSymbolTable
70
2
0
APPID
5
12
100
AcDbSymbolTableRecord
100
AcDbRegAppTableRecord
2
ACAD
70
0
0
ENDTAB
0
TABLE
2
DIMSTYLE
5
A
100
AcDbSymbolTable
70
1
0
ENDTAB
0
TABLE
2
BLOCK_RECORD
5
1
100
AcDbSymbolTable
70
1
0
BLOCK_RECORD
5
1F
100
AcDbSymbolTableRecord
100
AcDbBlockTableRecord
2
*MODEL_SPACE
0
BLOCK_RECORD
5
1B
100
AcDbSymbolTableRecord
100
AcDbBlockTableRecord
2
*PAPER_SPACE
0
ENDTAB
0
ENDSEC
0
SECTION
2
BLOCKS
0
BLOCK
5
20
100
AcDbEntity
100
AcDbBlockBegin
2
*MODEL_SPACE
0
ENDBLK
5
21
100
AcDbEntity
100
AcDbBlockEnd
0
BLOCK
5
1C
100
AcDbEntity
100
AcDbBlockBegin
2
*PAPER_SPACE
0
ENDBLK
5
1D
100
AcDbEntity
100
AcDbBlockEnd
0
ENDSEC
0
SECTION
2
ENTITIES
0
CIRCLE
5
100
100
AcDbEntity
8
0
100
AcDbCircle
10
2.5921899769786015e-14
20
47.000000000000057
30
1.7763568394002505e-14
40
1.6000000000000063
210
-2.6926167474344097e-37
220
2.540994343069025e-52
230
1
0
CIRCLE
5
101
100
AcDbEntity
8
0
100
AcDbCircle
10
-90.999999999999957
20
47.000000000000114
30
1.7763568394002505e-14
40
1.6000000000000016
210
-2.6926167474515162e-37
220
-3.081487911019577e-33
230
1
0
CIRCLE
5
102
100
AcDbEntity
8
0
100
AcDbCircle
10
91
20
47.000000000000014
30
1.7763568394002505e-14
40
1.6000000000000016
210
-2.6926167474515162e-37
220
-3.081487911019577e-33
230
1
0
LWPOLYLINE
5
103
100
AcDbEntity
8
0
100
AcDbPolyline
90
48
70
1
43
0.0
10
118.00000000000013
20
225.00000000000003
10
118.00000000000014
20
252.50000000000006
10
121.00000000000016
20
252.50000000000011
10
121.00000000000016
20
280.00000000000011
10
39.33333333333357
20
280.00000000000011
10
39.333333333333556
20
277.00000000000011
10
-39.333333333333059
20
277.00000000000011
10
-39.333333333333059
20
280.00000000000011
10
-117.99999999999966
20
280.00000000000023
10
-117.99999999999967
20
252.50000000000023
10
-120.99999999999972
20
252.50000000000023
10
-120.99999999999972
20
225.00000000000026
10
-117.9999999999997
20
225.00000000000023
10
-117.99999999999972
20
197.50000000000014
10
-120.99999999999974
20
197.50000000000014
10
-120.99999999999977
20
170.00000000000014
10
-117.99999999999976
20
170.00000000000014
10
-117.99999999999977
20
142.50000000000017
10
-120.9999999999998
20
142.50000000000017
10
-120.9999999999998
20
115.00000000000017
10
-117.99999999999982
20
115.00000000000016
10
-117.99999999999983
20
87.500000000000142
10
-120.99999999999983
20
87.500000000000128
10
-120.99999999999987
20
57.000000000000114
10
-100.99999999999994
20
57.000000000000128
10
-100.99999999999996
20
47.000000000000114
42
0.99999999999999989
10
-80.999999999999943
20
47.000000000000107
10
-80.999999999999957
20
57.000000000000107
10
-9.9999999999999822
20
57.000000000000071
10
-9.9999999999999876
20
47.000000000000064
42
0.99999999999999989
10
10.000000000000014
20
47.000000000000028
10
10.000000000000014
20
57.000000000000057
10
81
20
57.000000000000021
10
80.999999999999972
20
47.000000000000036
42
0.99999996505368005
10
100.99999999999996
20
46.999999301073572
10
100.99999999999991
20
57.000000000000014
10
118
20
57
10
118.00000000000003
20
87.500000000000014
10
121.00000000000001
20
87.500000000000014
10
121.00000000000003
20
115.00000000000001
10
118.00000000000003
20
115.00000000000001
10
118.00000000000004
20
142.50000000000003
10
121.00000000000007
20
142.50000000000003
10
121.00000000000007
20
170.00000000000003
10
118.00000000000009
20
170
10
118.0000000000001
20
197.50000000000003
10
121.0000000000001
20
197.50000000000003
10
121.0000000000001
20
225.00000000000003
0
ENDSEC
0
SECTION
2
OBJECTS
0
DICTIONARY
5
C
100
AcDbDictionary
3
ACAD_GROUP
350
D
3
ACAD_MLINESTYLE
350
17
0
DICTIONARY
5
D
100
AcDbDictionary
0
DICTIONARY
5
1A
330
C
100
AcDbDictionary
0
DICTIONARY
5
17
100
AcDbDictionary
0
ENDSEC
0
EOF
