0
SECTION
2
HEADER
9
$INSUNITS
70
4
9
$ACADVER
1
AC1014
9
$HANDSEED
5
FFFF
0
ENDSEC
0
SECTION
2
TABLES
0
TABLE
2
VPORT
5
8
100
AcDbSymbolTable
0
ENDTAB
0
TABLE
2
LTYPE
5
5
100
AcDbSymbolTable
0
LTYPE
5
14
100
AcDbSymbolTableRecord
100
AcDbLinetypeTableRecord
2
BYBLOCK
70
0
0
LTYPE
5
15
100
AcDbSymbolTableRecord
100
AcDbLinetypeTableRecord
2
BYLAYER
70
0
0
ENDTAB
0
TABLE
2
LAYER
5
2
100
AcDbSymbolTable
70
2
0
LAYER
5
50
100
AcDbSymbolTableRecord
100
AcDbLayerTableRecord
2
0
70
0
6
CONTINUOUS
0
ENDTAB
0
TABLE
2
STYLE
5
3
100
AcDbSymbolTable
70
1
0
STYLE
5
11
100
AcDbSymbolTableRecord
100
AcDbTextStyleTableRecord
2
STANDARD
70
0
0
ENDTAB
0
TABLE
2
VIEW
5
6
100
AcDbSymbolTable
70
0
0
ENDTAB
0
TABLE
2
UCS
5
7
100
AcDbSymbolTable
70
0
0
ENDTAB
0
TABLE
2
APPID
5
9
100
AcDbSymbolTable
70
2
0
APPID
5
12
100
AcDbSymbolTableRecord
100
AcDbRegAppTableRecord
2
ACAD
70
0
0
ENDTAB
0
TABLE
2
DIMSTYLE
5
A
100
AcDbSymbolTable
70
1
0
ENDTAB
0
TABLE
2
BLOCK_RECORD
5
1
100
AcDbSymbolTable
70
1
0
BLOCK_RECORD
5
1F
100
AcDbSymbolTableRecord
100
AcDbBlockTableRecord
2
*MODEL_SPACE
0
BLOCK_RECORD
5
1B
100
AcDbSymbolTableRecord
100
AcDbBlockTableRecord
2
*PAPER_SPACE
0
ENDTAB
0
ENDSEC
0
SECTION
2
BLOCKS
0
BLOCK
5
20
100
AcDbEntity
100
AcDbBlockBegin
2
*MODEL_SPACE
0
ENDBLK
5
21
100
AcDbEntity
100
AcDbBlockEnd
0
BLOCK
5
1C
100
AcDbEntity
100
AcDbBlockBegin
2
*PAPER_SPACE
0
ENDBLK
5
1D
100
AcDbEntity
100
AcDbBlockEnd
0
ENDSEC
0
SECTION
2
ENTITIES
0
LWPOLYLINE
5
100
100
AcDbEntity
8
0
100
AcDbPolyline
90
36
70
1
43
0.0
10
120.99999999999994
20
280
10
40.333333333335005
20
280.00000000000006
10
40.333333333335005
20
277
10
-40.333333333335005
20
277
10
-40.333333333335005
20
280.00000000000006
10
-117.99999999999996
20
280.00000000000006
10
-117.99999999999996
20
252.5
10
-120.99999999999994
20
252.5
10
-120.99999999999994
20
224.99999999999997
10
-117.99999999999994
20
224.99999999999997
10
-117.99999999999996
20
197.49999999999997
10
-120.99999999999994
20
197.49999999999997
10
-120.99999999999994
20
169.99999999999994
10
-117.99999999999994
20
169.99999999999994
10
-117.99999999999996
20
142.49999999999997
10
-120.99999999999994
20
142.49999999999997
10
-120.99999999999994
20
114.99999999999994
10
-117.99999999999994
20
114.99999999999997
10
-117.99999999999994
20
87.499999999999972
10
-120.99999999999994
20
87.499999999999972
10
-120.99999999999994
20
56.999999999999957
10
117.99999999999997
20
56.999999999999964
10
117.99999999999999
20
87.499999999999929
10
120.99999999999997
20
87.499999999999929
10
120.99999999999997
20
114.99999999999994
10
117.99999999999997
20
114.99999999999994
10
117.99999999999999
20
142.49999999999989
10
120.99999999999997
20
142.49999999999994
10
120.99999999999997
20
169.99999999999994
10
117.99999999999997
20
169.99999999999989
10
117.99999999999999
20
197.49999999999989
10
121
20
197.49999999999989
10
121
20
224.99999999999997
10
117.99999999999999
20
224.99999999999997
10
117.99999999999999
20
252.49999999999994
10
121
20
252.49999999999997
0
ENDSEC
0
SECTION
2
OBJECTS
0
DICTIONARY
5
C
100
AcDbDictionary
3
ACAD_GROUP
350
D
3
ACAD_MLINESTYLE
350
17
0
DICTIONARY
5
D
100
AcDbDictionary
0
DICTIONARY
5
1A
330
C
100
AcDbDictionary
0
DICTIONARY
5
17
100
AcDbDictionary
0
ENDSEC
0
EOF
