0
SECTION
2
HEADER
9
$INSUNITS
70
4
9
$ACADVER
1
AC1014
9
$HANDSEED
5
FFFF
0
ENDSEC
0
SECTION
2
TABLES
0
TABLE
2
VPORT
5
8
100
AcDbSymbolTable
0
ENDTAB
0
TABLE
2
LTYPE
5
5
100
AcDbSymbolTable
0
LTYPE
5
14
100
AcDbSymbolTableRecord
100
AcDbLinetypeTableRecord
2
BYBLOCK
70
0
0
LTYPE
5
15
100
AcDbSymbolTableRecord
100
AcDbLinetypeTableRecord
2
BYLAYER
70
0
0
ENDTAB
0
TABLE
2
LAYER
5
2
100
AcDbSymbolTable
70
2
0
LAYER
5
50
100
AcDbSymbolTableRecord
100
AcDbLayerTableRecord
2
0
70
0
6
CONTINUOUS
0
ENDTAB
0
TABLE
2
STYLE
5
3
100
AcDbSymbolTable
70
1
0
STYLE
5
11
100
AcDbSymbolTableRecord
100
AcDbTextStyleTableRecord
2
STANDARD
70
0
0
ENDTAB
0
TABLE
2
VIEW
5
6
100
AcDbSymbolTable
70
0
0
ENDTAB
0
TABLE
2
UCS
5
7
100
AcDbSymbolTable
70
0
0
ENDTAB
0
TABLE
2
APPID
5
9
100
AcDbSymbolTable
70
2
0
APPID
5
12
100
AcDbSymbolTableRecord
100
AcDbRegAppTableRecord
2
ACAD
70
0
0
ENDTAB
0
TABLE
2
DIMSTYLE
5
A
100
AcDbSymbolTable
70
1
0
ENDTAB
0
TABLE
2
BLOCK_RECORD
5
1
100
AcDbSymbolTable
70
1
0
BLOCK_RECORD
5
1F
100
AcDbSymbolTableRecord
100
AcDbBlockTableRecord
2
*MODEL_SPACE
0
BLOCK_RECORD
5
1B
100
AcDbSymbolTableRecord
100
AcDbBlockTableRecord
2
*PAPER_SPACE
0
ENDTAB
0
ENDSEC
0
SECTION
2
BLOCKS
0
BLOCK
5
20
100
AcDbEntity
100
AcDbBlockBegin
2
*MODEL_SPACE
0
ENDBLK
5
21
100
AcDbEntity
100
AcDbBlockEnd
0
BLOCK
5
1C
100
AcDbEntity
100
AcDbBlockBegin
2
*PAPER_SPACE
0
ENDBLK
5
1D
100
AcDbEntity
100
AcDbBlockEnd
0
ENDSEC
0
SECTION
2
ENTITIES
0
LWPOLYLINE
5
100
100
AcDbEntity
8
0
100
AcDbPolyline
90
36
70
1
43
0.0
10
121.00000000000273
20
280.00000000000017
10
40.333333333337684
20
280.00000000000023
10
40.333333333337677
20
277.00000000000023
10
-40.333333333332433
20
277.00000000000023
10
-40.333333333332433
20
280.00000000000023
10
-117.99999999999748
20
280.00000000000023
10
-117.99999999999748
20
252.50000000000017
10
-120.99999999999747
20
252.50000000000017
10
-120.99999999999747
20
225.00000000000014
10
-117.99999999999747
20
225.00000000000014
10
-117.99999999999748
20
197.50000000000014
10
-120.99999999999747
20
197.50000000000014
10
-120.99999999999747
20
170.00000000000011
10
-117.99999999999747
20
170.00000000000011
10
-117.99999999999748
20
142.50000000000017
10
-120.99999999999747
20
142.50000000000014
10
-120.99999999999747
20
115.00000000000013
10
-117.99999999999747
20
115.00000000000014
10
-117.99999999999747
20
87.500000000000142
10
-120.99999999999747
20
87.500000000000142
10
-120.99999999999747
20
57.000000000000135
10
118.00000000000276
20
57.000000000000142
10
118.00000000000279
20
87.500000000000114
10
121.00000000000277
20
87.500000000000114
10
121.00000000000277
20
115.00000000000013
10
118.00000000000276
20
115.00000000000013
10
118.00000000000279
20
142.50000000000006
10
121.00000000000277
20
142.50000000000011
10
121.00000000000277
20
170.00000000000011
10
118.00000000000276
20
170.00000000000006
10
118.00000000000279
20
197.50000000000006
10
121.00000000000279
20
197.50000000000006
10
121.00000000000279
20
225.00000000000014
10
118.00000000000279
20
225.00000000000014
10
118.00000000000279
20
252.50000000000011
10
121.00000000000279
20
252.50000000000014
0
ENDSEC
0
SECTION
2
OBJECTS
0
DICTIONARY
5
C
100
AcDbDictionary
3
ACAD_GROUP
350
D
3
ACAD_MLINESTYLE
350
17
0
DICTIONARY
5
D
100
AcDbDictionary
0
DICTIONARY
5
1A
330
C
100
AcDbDictionary
0
DICTIONARY
5
17
100
AcDbDictionary
0
ENDSEC
0
EOF
