0
SECTION
2
HEADER
9
$INSUNITS
70
4
9
$ACADVER
1
AC1014
9
$HANDSEED
5
FFFF
0
ENDSEC
0
SECTION
2
TABLES
0
TABLE
2
VPORT
5
8
100
AcDbSymbolTable
0
ENDTAB
0
TABLE
2
LTYPE
5
5
100
AcDbSymbolTable
0
LTYPE
5
14
100
AcDbSymbolTableRecord
100
AcDbLinetypeTableRecord
2
BYBLOCK
70
0
0
LTYPE
5
15
100
AcDbSymbolTableRecord
100
AcDbLinetypeTableRecord
2
BYLAYER
70
0
0
ENDTAB
0
TABLE
2
LAYER
5
2
100
AcDbSymbolTable
70
2
0
LAYER
5
50
100
AcDbSymbolTableRecord
100
AcDbLayerTableRecord
2
0
70
0
6
CONTINUOUS
0
ENDTAB
0
TABLE
2
STYLE
5
3
100
AcDbSymbolTable
70
1
0
STYLE
5
11
100
AcDbSymbolTableRecord
100
AcDbTextStyleTableRecord
2
STANDARD
70
0
0
ENDTAB
0
TABLE
2
VIEW
5
6
100
AcDbSymbolTable
70
0
0
ENDTAB
0
TABLE
2
UCS
5
7
100
AcDbSymbolTable
70
0
0
ENDTAB
0
TABLE
2
APPID
5
9
100
AcDbSymbolTable
70
2
0
APPID
5
12
100
AcDbSymbolTableRecord
100
AcDbRegAppTableRecord
2
ACAD
70
0
0
ENDTAB
0
TABLE
2
DIMSTYLE
5
A
100
AcDbSymbolTable
70
1
0
ENDTAB
0
TABLE
2
BLOCK_RECORD
5
1
100
AcDbSymbolTable
70
1
0
BLOCK_RECORD
5
1F
100
AcDbSymbolTableRecord
100
AcDbBlockTableRecord
2
*MODEL_SPACE
0
BLOCK_RECORD
5
1B
100
AcDbSymbolTableRecord
100
AcDbBlockTableRecord
2
*PAPER_SPACE
0
ENDTAB
0
ENDSEC
0
SECTION
2
BLOCKS
0
BLOCK
5
20
100
AcDbEntity
100
AcDbBlockBegin
2
*MODEL_SPACE
0
ENDBLK
5
21
100
AcDbEntity
100
AcDbBlockEnd
0
BLOCK
5
1C
100
AcDbEntity
100
AcDbBlockBegin
2
*PAPER_SPACE
0
ENDBLK
5
1D
100
AcDbEntity
100
AcDbBlockEnd
0
ENDSEC
0
SECTION
2
ENTITIES
0
CIRCLE
5
100
100
AcDbEntity
8
0
100
AcDbCircle
10
110.99999999999996
20
-110.99999999999996
30
0
40
1.6000000000000014
210
0
220
0
230
1
0
CIRCLE
5
101
100
AcDbEntity
8
0
100
AcDbCircle
10
110.99999999999996
20
110.99999999999996
30
0
40
1.6000000000000014
210
0
220
0
230
1
0
CIRCLE
5
102
100
AcDbEntity
8
0
100
AcDbCircle
10
-110.99999999999997
20
-110.99999999999994
30
0
40
1.6000000000000014
210
0
220
0
230
1
0
CIRCLE
5
103
100
AcDbEntity
8
0
100
AcDbCircle
10
-110.99999999999994
20
110.99999999999997
30
0
40
1.6000000000000014
210
0
220
0
230
1
0
LWPOLYLINE
5
104
100
AcDbEntity
8
0
100
AcDbPolyline
90
4
70
1
43
0.0
10
91.899999999999991
20
82.900000000000034
10
89.900000000000006
20
82.900000000000034
10
89.900000000000006
20
84.90000000000002
10
91.899999999999991
20
84.90000000000002
0
LWPOLYLINE
5
105
100
AcDbEntity
8
0
100
AcDbPolyline
90
4
70
1
43
0.0
10
87.899999999999991
20
82.900000000000034
10
85.900000000000006
20
82.900000000000034
10
85.900000000000006
20
84.90000000000002
10
87.899999999999991
20
84.90000000000002
0
LWPOLYLINE
5
106
100
AcDbEntity
8
0
100
AcDbPolyline
90
4
70
1
43
0.0
10
64.5
20
84.90000000000002
10
66.5
20
84.90000000000002
10
66.5
20
82.900000000000034
10
64.5
20
82.900000000000034
0
LWPOLYLINE
5
107
100
AcDbEntity
8
0
100
AcDbPolyline
90
4
70
1
43
0.0
10
60.5
20
84.90000000000002
10
62.499999999999993
20
84.90000000000002
10
62.499999999999993
20
82.900000000000034
10
60.5
20
82.900000000000034
0
LWPOLYLINE
5
108
100
AcDbEntity
8
0
100
AcDbPolyline
90
4
70
1
43
0.0
10
39.100000000000001
20
84.90000000000002
10
41.099999999999994
20
84.90000000000002
10
41.099999999999994
20
82.900000000000034
10
39.100000000000001
20
82.900000000000034
0
LWPOLYLINE
5
109
100
AcDbEntity
8
0
100
AcDbPolyline
90
4
70
1
43
0.0
10
35.099999999999994
20
84.90000000000002
10
37.099999999999994
20
84.90000000000002
10
37.099999999999994
20
82.900000000000034
10
35.099999999999994
20
82.900000000000034
0
LWPOLYLINE
5
110
100
AcDbEntity
8
0
100
AcDbPolyline
90
4
70
1
43
0.0
10
13.700000000000001
20
84.90000000000002
10
15.699999999999994
20
84.90000000000002
10
15.699999999999994
20
82.900000000000034
10
13.700000000000001
20
82.900000000000034
0
LWPOLYLINE
5
111
100
AcDbEntity
8
0
100
AcDbPolyline
90
4
70
1
43
0.0
10
9.7000000000000064
20
84.90000000000002
10
11.699999999999999
20
84.90000000000002
10
11.699999999999999
20
82.900000000000034
10
9.7000000000000064
20
82.900000000000034
0
LWPOLYLINE
5
112
100
AcDbEntity
8
0
100
AcDbPolyline
90
4
70
1
43
0.0
10
-11.699999999999999
20
84.90000000000002
10
-9.7000000000000064
20
84.90000000000002
10
-9.7000000000000064
20
82.900000000000034
10
-11.699999999999999
20
82.900000000000034
0
LWPOLYLINE
5
113
100
AcDbEntity
8
0
100
AcDbPolyline
90
4
70
1
43
0.0
10
-15.700000000000003
20
84.90000000000002
10
-13.70000000000001
20
84.90000000000002
10
-13.70000000000001
20
82.900000000000034
10
-15.700000000000003
20
82.900000000000034
0
LWPOLYLINE
5
114
100
AcDbEntity
8
0
100
AcDbPolyline
90
4
70
1
43
0.0
10
-37.099999999999994
20
84.90000000000002
10
-35.099999999999994
20
84.90000000000002
10
-35.099999999999994
20
82.900000000000034
10
-37.099999999999994
20
82.900000000000034
0
LWPOLYLINE
5
115
100
AcDbEntity
8
0
100
AcDbPolyline
90
4
70
1
43
0.0
10
-41.099999999999994
20
84.90000000000002
10
-39.100000000000001
20
84.90000000000002
10
-39.100000000000001
20
82.900000000000034
10
-41.099999999999994
20
82.900000000000034
0
LWPOLYLINE
5
116
100
AcDbEntity
8
0
100
AcDbPolyline
90
4
70
1
43
0.0
10
-62.5
20
84.90000000000002
10
-60.500000000000007
20
84.90000000000002
10
-60.500000000000007
20
82.900000000000034
10
-62.5
20
82.900000000000034
0
LWPOLYLINE
5
117
100
AcDbEntity
8
0
100
AcDbPolyline
90
4
70
1
43
0.0
10
-66.5
20
84.90000000000002
10
-64.500000000000014
20
84.90000000000002
10
-64.500000000000014
20
82.900000000000034
10
-66.5
20
82.900000000000034
0
LWPOLYLINE
5
118
100
AcDbEntity
8
0
100
AcDbPolyline
90
4
70
1
43
0.0
10
-87.900000000000006
20
84.90000000000002
10
-85.90000000000002
20
84.90000000000002
10
-85.90000000000002
20
82.900000000000034
10
-87.900000000000006
20
82.900000000000034
0
LWPOLYLINE
5
119
100
AcDbEntity
8
0
100
AcDbPolyline
90
4
70
1
43
0.0
10
-91.900000000000034
20
84.90000000000002
10
-89.900000000000006
20
84.90000000000002
10
-89.900000000000006
20
82.900000000000034
10
-91.900000000000034
20
82.900000000000034
0
LWPOLYLINE
5
120
100
AcDbEntity
8
0
100
AcDbPolyline
90
4
70
1
43
0.0
10
89.900000000000006
20
59.500000000000021
10
91.899999999999991
20
59.500000000000021
10
91.899999999999991
20
57.500000000000028
10
89.900000000000006
20
57.500000000000028
0
LWPOLYLINE
5
121
100
AcDbEntity
8
0
100
AcDbPolyline
90
4
70
1
43
0.0
10
85.900000000000006
20
59.500000000000028
10
87.899999999999991
20
59.500000000000028
10
87.899999999999991
20
57.500000000000028
10
85.900000000000006
20
57.500000000000028
0
LWPOLYLINE
5
122
100
AcDbEntity
8
0
100
AcDbPolyline
90
4
70
1
43
0.0
10
64.5
20
59.500000000000021
10
66.5
20
59.500000000000021
10
66.5
20
57.500000000000028
10
64.5
20
57.500000000000028
0
LWPOLYLINE
5
123
100
AcDbEntity
8
0
100
AcDbPolyline
90
4
70
1
43
0.0
10
60.5
20
59.500000000000028
10
62.499999999999993
20
59.500000000000028
10
62.499999999999993
20
57.500000000000028
10
60.5
20
57.500000000000028
0
LWPOLYLINE
5
124
100
AcDbEntity
8
0
100
AcDbPolyline
90
4
70
1
43
0.0
10
39.100000000000001
20
59.500000000000021
10
41.099999999999994
20
59.500000000000021
10
41.099999999999994
20
57.500000000000028
10
39.100000000000001
20
57.500000000000028
0
LWPOLYLINE
5
125
100
AcDbEntity
8
0
100
AcDbPolyline
90
4
70
1
43
0.0
10
35.099999999999994
20
59.500000000000028
10
37.099999999999994
20
59.500000000000028
10
37.099999999999994
20
57.500000000000028
10
35.099999999999994
20
57.500000000000028
0
LWPOLYLINE
5
126
100
AcDbEntity
8
0
100
AcDbPolyline
90
4
70
1
43
0.0
10
13.700000000000001
20
59.500000000000021
10
15.699999999999994
20
59.500000000000021
10
15.699999999999994
20
57.500000000000028
10
13.700000000000001
20
57.500000000000028
0
LWPOLYLINE
5
127
100
AcDbEntity
8
0
100
AcDbPolyline
90
4
70
1
43
0.0
10
9.7000000000000064
20
59.500000000000028
10
11.699999999999999
20
59.500000000000028
10
11.699999999999999
20
57.500000000000028
10
9.7000000000000064
20
57.500000000000028
0
LWPOLYLINE
5
128
100
AcDbEntity
8
0
100
AcDbPolyline
90
4
70
1
43
0.0
10
-11.699999999999999
20
59.500000000000021
10
-9.7000000000000064
20
59.500000000000021
10
-9.7000000000000064
20
57.500000000000028
10
-11.699999999999999
20
57.500000000000028
0
LWPOLYLINE
5
129
100
AcDbEntity
8
0
100
AcDbPolyline
90
4
70
1
43
0.0
10
-15.700000000000003
20
59.500000000000028
10
-13.70000000000001
20
59.500000000000028
10
-13.70000000000001
20
57.500000000000028
10
-15.700000000000003
20
57.500000000000028
0
LWPOLYLINE
5
130
100
AcDbEntity
8
0
100
AcDbPolyline
90
4
70
1
43
0.0
10
-94.900000000000006
20
82.900000000000034
10
-96.900000000000034
20
82.900000000000034
10
-96.900000000000034
20
84.90000000000002
10
-94.900000000000006
20
84.90000000000002
0
LWPOLYLINE
5
131
100
AcDbEntity
8
0
100
AcDbPolyline
90
4
70
1
43
0.0
10
-94.899999985098859
20
-94.90000000000002
10
-96.900000014901181
20
-94.90000000000002
10
-96.900000014901181
20
-92.899999999999991
10
-94.899999985098859
20
-92.899999999999991
0
LWPOLYLINE
5
132
100
AcDbEntity
8
0
100
AcDbPolyline
90
4
70
1
43
0.0
10
-87.900000000000006
20
-92.899999999999991
10
-85.90000000000002
20
-92.899999999999991
10
-85.90000000000002
20
-94.899999999999977
10
-87.900000000000006
20
-94.899999999999977
0
LWPOLYLINE
5
133
100
AcDbEntity
8
0
100
AcDbPolyline
90
4
70
1
43
0.0
10
-91.900000000000034
20
-92.899999999999991
10
-89.900000000000006
20
-92.899999999999991
10
-89.900000000000006
20
-94.899999999999977
10
-91.900000000000034
20
-94.899999999999977
0
LWPOLYLINE
5
134
100
AcDbEntity
8
0
100
AcDbPolyline
90
4
70
1
43
0.0
10
-66.5
20
-92.899999999999991
10
-64.500000000000014
20
-92.899999999999991
10
-64.500000000000014
20
-94.899999999999977
10
-66.5
20
-94.899999999999977
0
LWPOLYLINE
5
135
100
AcDbEntity
8
0
100
AcDbPolyline
90
4
70
1
43
0.0
10
-62.5
20
-92.899999999999991
10
-60.500000000000007
20
-92.899999999999991
10
-60.500000000000007
20
-94.899999999999977
10
-62.5
20
-94.899999999999977
0
LWPOLYLINE
5
136
100
AcDbEntity
8
0
100
AcDbPolyline
90
4
70
1
43
0.0
10
-41.099999999999994
20
-92.899999999999991
10
-39.100000000000001
20
-92.899999999999991
10
-39.100000000000001
20
-94.899999999999977
10
-41.099999999999994
20
-94.899999999999977
0
LWPOLYLINE
5
137
100
AcDbEntity
8
0
100
AcDbPolyline
90
4
70
1
43
0.0
10
-37.099999999999994
20
-92.899999999999991
10
-35.099999999999994
20
-92.899999999999991
10
-35.099999999999994
20
-94.899999999999977
10
-37.099999999999994
20
-94.899999999999977
0
LWPOLYLINE
5
138
100
AcDbEntity
8
0
100
AcDbPolyline
90
4
70
1
43
0.0
10
-15.700000000000003
20
-92.899999999999991
10
-13.70000000000001
20
-92.899999999999991
10
-13.70000000000001
20
-94.899999999999977
10
-15.700000000000003
20
-94.899999999999977
0
LWPOLYLINE
5
139
100
AcDbEntity
8
0
100
AcDbPolyline
90
4
70
1
43
0.0
10
39.100000000000001
20
-92.899999999999991
10
41.099999999999994
20
-92.899999999999991
10
41.099999999999994
20
-94.899999999999977
10
39.100000000000001
20
-94.899999999999977
0
LWPOLYLINE
5
140
100
AcDbEntity
8
0
100
AcDbPolyline
90
4
70
1
43
0.0
10
-11.699999999999999
20
-92.899999999999991
10
-9.7000000000000064
20
-92.899999999999991
10
-9.7000000000000064
20
-94.899999999999977
10
-11.699999999999999
20
-94.899999999999977
0
LWPOLYLINE
5
141
100
AcDbEntity
8
0
100
AcDbPolyline
90
4
70
1
43
0.0
10
35.099999999999994
20
-92.899999999999991
10
37.099999999999994
20
-92.899999999999991
10
37.099999999999994
20
-94.899999999999977
10
35.099999999999994
20
-94.899999999999977
0
LWPOLYLINE
5
142
100
AcDbEntity
8
0
100
AcDbPolyline
90
4
70
1
43
0.0
10
13.700000000000001
20
-92.899999999999991
10
15.699999999999994
20
-92.899999999999991
10
15.699999999999994
20
-94.899999999999977
10
13.700000000000001
20
-94.899999999999977
0
LWPOLYLINE
5
143
100
AcDbEntity
8
0
100
AcDbPolyline
90
4
70
1
43
0.0
10
9.7000000000000064
20
-92.899999999999991
10
11.699999999999999
20
-92.899999999999991
10
11.699999999999999
20
-94.899999999999977
10
9.7000000000000064
20
-94.899999999999977
0
LWPOLYLINE
5
144
100
AcDbEntity
8
0
100
AcDbPolyline
90
4
70
1
43
0.0
10
-87.900000000000006
20
-67.5
10
-85.90000000000002
20
-67.5
10
-85.90000000000002
20
-69.499999999999957
10
-87.900000000000006
20
-69.499999999999957
0
LWPOLYLINE
5
145
100
AcDbEntity
8
0
100
AcDbPolyline
90
4
70
1
43
0.0
10
60.5
20
-92.899999999999991
10
62.499999999999993
20
-92.899999999999991
10
62.499999999999993
20
-94.899999999999977
10
60.5
20
-94.899999999999977
0
LWPOLYLINE
5
146
100
AcDbEntity
8
0
100
AcDbPolyline
90
4
70
1
43
0.0
10
64.5
20
-92.899999999999991
10
66.5
20
-92.899999999999991
10
66.5
20
-94.899999999999977
10
64.5
20
-94.899999999999977
0
LWPOLYLINE
5
147
100
AcDbEntity
8
0
100
AcDbPolyline
90
4
70
1
43
0.0
10
85.900000000000006
20
-92.899999999999991
10
87.899999999999991
20
-92.899999999999991
10
87.899999999999991
20
-94.899999999999977
10
85.900000000000006
20
-94.899999999999977
0
LWPOLYLINE
5
148
100
AcDbEntity
8
0
100
AcDbPolyline
90
4
70
1
43
0.0
10
89.900000000000006
20
-92.899999999999991
10
91.899999999999991
20
-92.899999999999991
10
91.899999999999991
20
-94.899999999999977
10
89.900000000000006
20
-94.899999999999977
0
LWPOLYLINE
5
149
100
AcDbEntity
8
0
100
AcDbPolyline
90
4
70
1
43
0.0
10
-91.900000000000034
20
-67.499999999999972
10
-89.900000000000006
20
-67.499999999999972
10
-89.900000000000006
20
-69.499999999999957
10
-91.900000000000034
20
-69.499999999999957
0
LWPOLYLINE
5
150
100
AcDbEntity
8
0
100
AcDbPolyline
90
4
70
1
43
0.0
10
-62.5
20
-67.5
10
-60.500000000000007
20
-67.5
10
-60.500000000000007
20
-69.499999999999957
10
-62.5
20
-69.499999999999957
0
LWPOLYLINE
5
151
100
AcDbEntity
8
0
100
AcDbPolyline
90
4
70
1
43
0.0
10
-66.5
20
-67.499999999999972
10
-64.500000000000014
20
-67.499999999999972
10
-64.500000000000014
20
-69.499999999999957
10
-66.5
20
-69.499999999999957
0
LWPOLYLINE
5
152
100
AcDbEntity
8
0
100
AcDbPolyline
90
4
70
1
43
0.0
10
-41.099999999999994
20
-67.499999999999972
10
-39.100000000000001
20
-67.499999999999972
10
-39.100000000000001
20
-69.499999999999957
10
-41.099999999999994
20
-69.499999999999957
0
LWPOLYLINE
5
153
100
AcDbEntity
8
0
100
AcDbPolyline
90
4
70
1
43
0.0
10
-37.099999999999994
20
-67.5
10
-35.099999999999994
20
-67.5
10
-35.099999999999994
20
-69.499999999999957
10
-37.099999999999994
20
-69.499999999999957
0
LWPOLYLINE
5
154
100
AcDbEntity
8
0
100
AcDbPolyline
90
4
70
1
43
0.0
10
-15.700000000000003
20
-67.499999999999972
10
-13.70000000000001
20
-67.499999999999972
10
-13.70000000000001
20
-69.499999999999957
10
-15.700000000000003
20
-69.499999999999957
0
LWPOLYLINE
5
155
100
AcDbEntity
8
0
100
AcDbPolyline
90
4
70
1
43
0.0
10
-11.699999999999999
20
-67.5
10
-9.7000000000000064
20
-67.5
10
-9.7000000000000064
20
-69.499999999999957
10
-11.699999999999999
20
-69.499999999999957
0
LWPOLYLINE
5
156
100
AcDbEntity
8
0
100
AcDbPolyline
90
4
70
1
43
0.0
10
9.7000000000000064
20
-67.499999999999972
10
11.699999999999999
20
-67.499999999999972
10
11.699999999999999
20
-69.499999999999957
10
9.7000000000000064
20
-69.499999999999957
0
LWPOLYLINE
5
157
100
AcDbEntity
8
0
100
AcDbPolyline
90
4
70
1
43
0.0
10
13.700000000000001
20
-67.5
10
15.699999999999994
20
-67.5
10
15.699999999999994
20
-69.499999999999957
10
13.700000000000001
20
-69.499999999999957
0
LWPOLYLINE
5
158
100
AcDbEntity
8
0
100
AcDbPolyline
90
4
70
1
43
0.0
10
35.099999999999994
20
-67.499999999999972
10
37.099999999999994
20
-67.499999999999972
10
37.099999999999994
20
-69.499999999999957
10
35.099999999999994
20
-69.499999999999957
0
LWPOLYLINE
5
159
100
AcDbEntity
8
0
100
AcDbPolyline
90
4
70
1
43
0.0
10
39.100000000000001
20
-67.5
10
41.099999999999994
20
-67.5
10
41.099999999999994
20
-69.499999999999957
10
39.100000000000001
20
-69.499999999999957
0
LWPOLYLINE
5
160
100
AcDbEntity
8
0
100
AcDbPolyline
90
4
70
1
43
0.0
10
85.900000000000006
20
-67.499999999999972
10
87.899999999999991
20
-67.499999999999972
10
87.899999999999991
20
-69.499999999999957
10
85.900000000000006
20
-69.499999999999957
0
LWPOLYLINE
5
161
100
AcDbEntity
8
0
100
AcDbPolyline
90
4
70
1
43
0.0
10
89.900000000000006
20
-67.5
10
91.899999999999991
20
-67.5
10
91.899999999999991
20
-69.499999999999957
10
89.900000000000006
20
-69.499999999999957
0
LWPOLYLINE
5
162
100
AcDbEntity
8
0
100
AcDbPolyline
90
4
70
1
43
0.0
10
60.5
20
-67.499999999999972
10
62.499999999999993
20
-67.499999999999972
10
62.499999999999993
20
-69.499999999999957
10
60.5
20
-69.499999999999957
0
LWPOLYLINE
5
163
100
AcDbEntity
8
0
100
AcDbPolyline
90
4
70
1
43
0.0
10
64.5
20
-67.5
10
66.5
20
-67.5
10
66.5
20
-69.499999999999957
10
64.5
20
-69.499999999999957
0
LWPOLYLINE
5
164
100
AcDbEntity
8
0
100
AcDbPolyline
90
4
70
1
43
0.0
10
-62.5
20
8.7000000000000099
10
-60.500000000000007
20
8.7000000000000099
10
-60.500000000000007
20
6.7000000000000171
10
-62.5
20
6.7000000000000171
0
LWPOLYLINE
5
165
100
AcDbEntity
8
0
100
AcDbPolyline
90
4
70
1
43
0.0
10
-66.5
20
8.7000000000000277
10
-64.500000000000014
20
8.7000000000000277
10
-64.500000000000014
20
6.7000000000000171
10
-66.5
20
6.7000000000000171
0
LWPOLYLINE
5
166
100
AcDbEntity
8
0
100
AcDbPolyline
90
4
70
1
43
0.0
10
35.099999999999994
20
8.7000000000000277
10
37.099999999999994
20
8.7000000000000277
10
37.099999999999994
20
6.7000000000000171
10
35.099999999999994
20
6.7000000000000171
0
LWPOLYLINE
5
167
100
AcDbEntity
8
0
100
AcDbPolyline
90
4
70
1
43
0.0
10
60.5
20
8.7000000000000277
10
62.499999999999993
20
8.7000000000000277
10
62.499999999999993
20
6.7000000000000171
10
60.5
20
6.7000000000000171
0
LWPOLYLINE
5
168
100
AcDbEntity
8
0
100
AcDbPolyline
90
4
70
1
43
0.0
10
9.7000000000000064
20
8.7000000000000277
10
11.699999999999999
20
8.7000000000000277
10
11.699999999999999
20
6.7000000000000171
10
9.7000000000000064
20
6.7000000000000171
0
LWPOLYLINE
5
169
100
AcDbEntity
8
0
100
AcDbPolyline
90
4
70
1
43
0.0
10
13.700000000000001
20
8.7000000000000099
10
15.699999999999994
20
8.7000000000000099
10
15.699999999999994
20
6.7000000000000171
10
13.700000000000001
20
6.7000000000000171
0
LWPOLYLINE
5
170
100
AcDbEntity
8
0
100
AcDbPolyline
90
4
70
1
43
0.0
10
-11.699999999999999
20
8.7000000000000099
10
-9.7000000000000064
20
8.7000000000000099
10
-9.7000000000000064
20
6.7000000000000171
10
-11.699999999999999
20
6.7000000000000171
0
LWPOLYLINE
5
171
100
AcDbEntity
8
0
100
AcDbPolyline
90
4
70
1
43
0.0
10
-15.700000000000003
20
8.7000000000000277
10
-13.70000000000001
20
8.7000000000000277
10
-13.70000000000001
20
6.7000000000000171
10
-15.700000000000003
20
6.7000000000000171
0
LWPOLYLINE
5
172
100
AcDbEntity
8
0
100
AcDbPolyline
90
4
70
1
43
0.0
10
-37.099999999999994
20
8.7000000000000099
10
-35.099999999999994
20
8.7000000000000099
10
-35.099999999999994
20
6.7000000000000171
10
-37.099999999999994
20
6.7000000000000171
0
LWPOLYLINE
5
173
100
AcDbEntity
8
0
100
AcDbPolyline
90
4
70
1
43
0.0
10
-41.099999999999994
20
8.7000000000000277
10
-39.100000000000001
20
8.7000000000000277
10
-39.100000000000001
20
6.7000000000000171
10
-41.099999999999994
20
6.7000000000000171
0
LWPOLYLINE
5
174
100
AcDbEntity
8
0
100
AcDbPolyline
90
4
70
1
43
0.0
10
-87.900000000000006
20
8.7000000000000099
10
-85.90000000000002
20
8.7000000000000099
10
-85.90000000000002
20
6.7000000000000171
10
-87.900000000000006
20
6.7000000000000171
0
LWPOLYLINE
5
175
100
AcDbEntity
8
0
100
AcDbPolyline
90
4
70
1
43
0.0
10
-91.900000000000034
20
8.7000000000000277
10
-89.900000000000006
20
8.7000000000000277
10
-89.900000000000006
20
6.7000000000000171
10
-91.900000000000034
20
6.7000000000000171
0
LWPOLYLINE
5
176
100
AcDbEntity
8
0
100
AcDbPolyline
90
4
70
1
43
0.0
10
89.900000000000006
20
-16.699999999999982
10
91.899999999999991
20
-16.699999999999982
10
91.899999999999991
20
-18.699999999999974
10
89.900000000000006
20
-18.699999999999974
0
LWPOLYLINE
5
177
100
AcDbEntity
8
0
100
AcDbPolyline
90
4
70
1
43
0.0
10
85.900000000000006
20
-16.699999999999982
10
87.899999999999991
20
-16.699999999999982
10
87.899999999999991
20
-18.699999999999974
10
85.900000000000006
20
-18.699999999999974
0
LWPOLYLINE
5
178
100
AcDbEntity
8
0
100
AcDbPolyline
90
4
70
1
43
0.0
10
64.5
20
-16.699999999999982
10
66.5
20
-16.699999999999982
10
66.5
20
-18.699999999999974
10
64.5
20
-18.699999999999974
0
LWPOLYLINE
5
179
100
AcDbEntity
8
0
100
AcDbPolyline
90
4
70
1
43
0.0
10
60.5
20
-16.699999999999982
10
62.499999999999993
20
-16.699999999999982
10
62.499999999999993
20
-18.699999999999974
10
60.5
20
-18.699999999999974
0
LWPOLYLINE
5
180
100
AcDbEntity
8
0
100
AcDbPolyline
90
4
70
1
43
0.0
10
64.5
20
8.7000000000000099
10
66.5
20
8.7000000000000099
10
66.5
20
6.7000000000000171
10
64.5
20
6.7000000000000171
0
LWPOLYLINE
5
181
100
AcDbEntity
8
0
100
AcDbPolyline
90
4
70
1
43
0.0
10
-41.099999999999994
20
-16.699999999999982
10
-39.100000000000001
20
-16.699999999999982
10
-39.100000000000001
20
-18.699999999999974
10
-41.099999999999994
20
-18.699999999999974
0
LWPOLYLINE
5
182
100
AcDbEntity
8
0
100
AcDbPolyline
90
4
70
1
43
0.0
10
-62.5
20
-16.699999999999982
10
-60.500000000000007
20
-16.699999999999982
10
-60.500000000000007
20
-18.699999999999974
10
-62.5
20
-18.699999999999974
0
LWPOLYLINE
5
183
100
AcDbEntity
8
0
100
AcDbPolyline
90
4
70
1
43
0.0
10
-66.5
20
-16.699999999999982
10
-64.500000000000014
20
-16.699999999999982
10
-64.500000000000014
20
-18.699999999999974
10
-66.5
20
-18.699999999999974
0
LWPOLYLINE
5
184
100
AcDbEntity
8
0
100
AcDbPolyline
90
4
70
1
43
0.0
10
-87.900000000000006
20
-16.699999999999982
10
-85.90000000000002
20
-16.699999999999982
10
-85.90000000000002
20
-18.699999999999974
10
-87.900000000000006
20
-18.699999999999974
0
LWPOLYLINE
5
185
100
AcDbEntity
8
0
100
AcDbPolyline
90
4
70
1
43
0.0
10
13.700000000000001
20
-16.699999999999982
10
15.699999999999994
20
-16.699999999999982
10
15.699999999999994
20
-18.699999999999974
10
13.700000000000001
20
-18.699999999999974
0
LWPOLYLINE
5
186
100
AcDbEntity
8
0
100
AcDbPolyline
90
4
70
1
43
0.0
10
9.7000000000000064
20
-16.699999999999982
10
11.699999999999999
20
-16.699999999999982
10
11.699999999999999
20
-18.699999999999974
10
9.7000000000000064
20
-18.699999999999974
0
LWPOLYLINE
5
187
100
AcDbEntity
8
0
100
AcDbPolyline
90
4
70
1
43
0.0
10
35.099999999999994
20
-16.699999999999982
10
37.099999999999994
20
-16.699999999999982
10
37.099999999999994
20
-18.699999999999974
10
35.099999999999994
20
-18.699999999999974
0
LWPOLYLINE
5
188
100
AcDbEntity
8
0
100
AcDbPolyline
90
4
70
1
43
0.0
10
-15.700000000000003
20
-16.699999999999982
10
-13.70000000000001
20
-16.699999999999982
10
-13.70000000000001
20
-18.699999999999974
10
-15.700000000000003
20
-18.699999999999974
0
LWPOLYLINE
5
189
100
AcDbEntity
8
0
100
AcDbPolyline
90
4
70
1
43
0.0
10
39.100000000000001
20
-16.699999999999982
10
41.099999999999994
20
-16.699999999999982
10
41.099999999999994
20
-18.699999999999974
10
39.100000000000001
20
-18.699999999999974
0
LWPOLYLINE
5
190
100
AcDbEntity
8
0
100
AcDbPolyline
90
4
70
1
43
0.0
10
-11.699999999999999
20
-16.699999999999982
10
-9.7000000000000064
20
-16.699999999999982
10
-9.7000000000000064
20
-18.699999999999974
10
-11.699999999999999
20
-18.699999999999974
0
LWPOLYLINE
5
191
100
AcDbEntity
8
0
100
AcDbPolyline
90
4
70
1
43
0.0
10
-37.099999999999994
20
-16.699999999999982
10
-35.099999999999994
20
-16.699999999999982
10
-35.099999999999994
20
-18.699999999999974
10
-37.099999999999994
20
-18.699999999999974
0
LWPOLYLINE
5
192
100
AcDbEntity
8
0
100
AcDbPolyline
90
4
70
1
43
0.0
10
-62.5
20
-42.099999999999973
10
-60.500000000000007
20
-42.099999999999973
10
-60.500000000000007
20
-44.099999999999966
10
-62.5
20
-44.099999999999966
0
LWPOLYLINE
5
193
100
AcDbEntity
8
0
100
AcDbPolyline
90
4
70
1
43
0.0
10
-37.099999999999994
20
-42.099999999999973
10
-35.099999999999994
20
-42.099999999999973
10
-35.099999999999994
20
-44.099999999999966
10
-37.099999999999994
20
-44.099999999999966
0
LWPOLYLINE
5
194
100
AcDbEntity
8
0
100
AcDbPolyline
90
4
70
1
43
0.0
10
-41.099999999999994
20
-42.099999999999973
10
-39.100000000000001
20
-42.099999999999973
10
-39.100000000000001
20
-44.099999999999966
10
-41.099999999999994
20
-44.099999999999966
0
LWPOLYLINE
5
195
100
AcDbEntity
8
0
100
AcDbPolyline
90
4
70
1
43
0.0
10
-15.700000000000003
20
-42.099999999999973
10
-13.70000000000001
20
-42.099999999999973
10
-13.70000000000001
20
-44.099999999999966
10
-15.700000000000003
20
-44.099999999999966
0
LWPOLYLINE
5
196
100
AcDbEntity
8
0
100
AcDbPolyline
90
4
70
1
43
0.0
10
-66.5
20
-42.099999999999973
10
-64.500000000000014
20
-42.099999999999973
10
-64.500000000000014
20
-44.099999999999966
10
-66.5
20
-44.099999999999966
0
LWPOLYLINE
5
197
100
AcDbEntity
8
0
100
AcDbPolyline
90
4
70
1
43
0.0
10
64.5
20
-42.099999999999973
10
66.5
20
-42.099999999999973
10
66.5
20
-44.099999999999966
10
64.5
20
-44.099999999999966
0
LWPOLYLINE
5
198
100
AcDbEntity
8
0
100
AcDbPolyline
90
4
70
1
43
0.0
10
89.900000000000006
20
-42.099999999999973
10
91.899999999999991
20
-42.099999999999973
10
91.899999999999991
20
-44.099999999999966
10
89.900000000000006
20
-44.099999999999966
0
LWPOLYLINE
5
199
100
AcDbEntity
8
0
100
AcDbPolyline
90
4
70
1
43
0.0
10
60.5
20
-42.099999999999973
10
62.499999999999993
20
-42.099999999999973
10
62.499999999999993
20
-44.099999999999966
10
60.5
20
-44.099999999999966
0
LWPOLYLINE
5
200
100
AcDbEntity
8
0
100
AcDbPolyline
90
4
70
1
43
0.0
10
39.100000000000001
20
-42.099999999999973
10
41.099999999999994
20
-42.099999999999973
10
41.099999999999994
20
-44.099999999999966
10
39.100000000000001
20
-44.099999999999966
0
LWPOLYLINE
5
201
100
AcDbEntity
8
0
100
AcDbPolyline
90
4
70
1
43
0.0
10
35.099999999999994
20
-42.099999999999973
10
37.099999999999994
20
-42.099999999999973
10
37.099999999999994
20
-44.099999999999966
10
35.099999999999994
20
-44.099999999999966
0
LWPOLYLINE
5
202
100
AcDbEntity
8
0
100
AcDbPolyline
90
4
70
1
43
0.0
10
13.700000000000001
20
-42.099999999999973
10
15.699999999999994
20
-42.099999999999973
10
15.699999999999994
20
-44.099999999999966
10
13.700000000000001
20
-44.099999999999966
0
LWPOLYLINE
5
203
100
AcDbEntity
8
0
100
AcDbPolyline
90
4
70
1
43
0.0
10
9.7000000000000064
20
-42.099999999999973
10
11.699999999999999
20
-42.099999999999973
10
11.699999999999999
20
-44.099999999999966
10
9.7000000000000064
20
-44.099999999999966
0
LWPOLYLINE
5
204
100
AcDbEntity
8
0
100
AcDbPolyline
90
4
70
1
43
0.0
10
-11.699999999999999
20
-42.099999999999973
10
-9.7000000000000064
20
-42.099999999999973
10
-9.7000000000000064
20
-44.099999999999966
10
-11.699999999999999
20
-44.099999999999966
0
LWPOLYLINE
5
205
100
AcDbEntity
8
0
100
AcDbPolyline
90
4
70
1
43
0.0
10
-87.900000000000006
20
-42.099999999999973
10
-85.90000000000002
20
-42.099999999999973
10
-85.90000000000002
20
-44.099999999999966
10
-87.900000000000006
20
-44.099999999999966
0
LWPOLYLINE
5
206
100
AcDbEntity
8
0
100
AcDbPolyline
90
4
70
1
43
0.0
10
-91.900000000000034
20
-42.099999999999973
10
-89.900000000000006
20
-42.099999999999973
10
-89.900000000000006
20
-44.099999999999966
10
-91.900000000000034
20
-44.099999999999966
0
LWPOLYLINE
5
207
100
AcDbEntity
8
0
100
AcDbPolyline
90
4
70
1
43
0.0
10
85.900000000000006
20
-42.099999999999973
10
87.899999999999991
20
-42.099999999999973
10
87.899999999999991
20
-44.099999999999966
10
85.900000000000006
20
-44.099999999999966
0
LWPOLYLINE
5
208
100
AcDbEntity
8
0
100
AcDbPolyline
90
4
70
1
43
0.0
10
-91.900000000000034
20
-16.699999999999982
10
-89.900000000000006
20
-16.699999999999982
10
-89.900000000000006
20
-18.699999999999974
10
-91.900000000000034
20
-18.699999999999974
0
LWPOLYLINE
5
209
100
AcDbEntity
8
0
100
AcDbPolyline
90
4
70
1
43
0.0
10
60.5
20
34.10000000000003
10
62.499999999999993
20
34.10000000000003
10
62.499999999999993
20
32.100000000000023
10
60.5
20
32.100000000000023
0
LWPOLYLINE
5
210
100
AcDbEntity
8
0
100
AcDbPolyline
90
4
70
1
43
0.0
10
64.5
20
34.100000000000023
10
66.5
20
34.100000000000023
10
66.5
20
32.100000000000023
10
64.5
20
32.100000000000023
0
LWPOLYLINE
5
211
100
AcDbEntity
8
0
100
AcDbPolyline
90
4
70
1
43
0.0
10
85.900000000000006
20
34.10000000000003
10
87.899999999999991
20
34.10000000000003
10
87.899999999999991
20
32.100000000000023
10
85.900000000000006
20
32.100000000000023
0
LWPOLYLINE
5
212
100
AcDbEntity
8
0
100
AcDbPolyline
90
4
70
1
43
0.0
10
89.900000000000006
20
34.100000000000023
10
91.899999999999991
20
34.100000000000023
10
91.899999999999991
20
32.100000000000023
10
89.900000000000006
20
32.100000000000023
0
LWPOLYLINE
5
213
100
AcDbEntity
8
0
100
AcDbPolyline
90
4
70
1
43
0.0
10
-91.900000000000034
20
59.500000000000028
10
-89.900000000000006
20
59.500000000000028
10
-89.900000000000006
20
57.500000000000028
10
-91.900000000000034
20
57.500000000000028
0
LWPOLYLINE
5
214
100
AcDbEntity
8
0
100
AcDbPolyline
90
4
70
1
43
0.0
10
-87.900000000000006
20
59.500000000000021
10
-85.90000000000002
20
59.500000000000021
10
-85.90000000000002
20
57.500000000000028
10
-87.900000000000006
20
57.500000000000028
0
LWPOLYLINE
5
215
100
AcDbEntity
8
0
100
AcDbPolyline
90
4
70
1
43
0.0
10
-66.5
20
59.500000000000028
10
-64.500000000000014
20
59.500000000000028
10
-64.500000000000014
20
57.500000000000028
10
-66.5
20
57.500000000000028
0
LWPOLYLINE
5
216
100
AcDbEntity
8
0
100
AcDbPolyline
90
4
70
1
43
0.0
10
-62.5
20
59.500000000000021
10
-60.500000000000007
20
59.500000000000021
10
-60.500000000000007
20
57.500000000000028
10
-62.5
20
57.500000000000028
0
LWPOLYLINE
5
217
100
AcDbEntity
8
0
100
AcDbPolyline
90
4
70
1
43
0.0
10
35.099999999999994
20
34.10000000000003
10
37.099999999999994
20
34.10000000000003
10
37.099999999999994
20
32.100000000000023
10
35.099999999999994
20
32.100000000000023
0
LWPOLYLINE
5
218
100
AcDbEntity
8
0
100
AcDbPolyline
90
4
70
1
43
0.0
10
39.100000000000001
20
34.100000000000023
10
41.099999999999994
20
34.100000000000023
10
41.099999999999994
20
32.100000000000023
10
39.100000000000001
20
32.100000000000023
0
LWPOLYLINE
5
219
100
AcDbEntity
8
0
100
AcDbPolyline
90
4
70
1
43
0.0
10
13.700000000000001
20
34.100000000000023
10
15.699999999999994
20
34.100000000000023
10
15.699999999999994
20
32.100000000000023
10
13.700000000000001
20
32.100000000000023
0
LWPOLYLINE
5
220
100
AcDbEntity
8
0
100
AcDbPolyline
90
4
70
1
43
0.0
10
9.7000000000000064
20
34.10000000000003
10
11.699999999999999
20
34.10000000000003
10
11.699999999999999
20
32.100000000000023
10
9.7000000000000064
20
32.100000000000023
0
LWPOLYLINE
5
221
100
AcDbEntity
8
0
100
AcDbPolyline
90
4
70
1
43
0.0
10
-11.699999999999999
20
34.100000000000023
10
-9.7000000000000064
20
34.100000000000023
10
-9.7000000000000064
20
32.100000000000023
10
-11.699999999999999
20
32.100000000000023
0
LWPOLYLINE
5
222
100
AcDbEntity
8
0
100
AcDbPolyline
90
4
70
1
43
0.0
10
-15.700000000000003
20
34.10000000000003
10
-13.70000000000001
20
34.10000000000003
10
-13.70000000000001
20
32.100000000000023
10
-15.700000000000003
20
32.100000000000023
0
LWPOLYLINE
5
223
100
AcDbEntity
8
0
100
AcDbPolyline
90
4
70
1
43
0.0
10
-37.099999999999994
20
34.100000000000023
10
-35.099999999999994
20
34.100000000000023
10
-35.099999999999994
20
32.100000000000023
10
-37.099999999999994
20
32.100000000000023
0
LWPOLYLINE
5
224
100
AcDbEntity
8
0
100
AcDbPolyline
90
4
70
1
43
0.0
10
-41.099999999999994
20
34.10000000000003
10
-39.100000000000001
20
34.10000000000003
10
-39.100000000000001
20
32.100000000000023
10
-41.099999999999994
20
32.100000000000023
0
LWPOLYLINE
5
225
100
AcDbEntity
8
0
100
AcDbPolyline
90
4
70
1
43
0.0
10
-62.5
20
34.100000000000023
10
-60.500000000000007
20
34.100000000000023
10
-60.500000000000007
20
32.100000000000023
10
-62.5
20
32.100000000000023
0
LWPOLYLINE
5
226
100
AcDbEntity
8
0
100
AcDbPolyline
90
4
70
1
43
0.0
10
-66.5
20
34.10000000000003
10
-64.500000000000014
20
34.10000000000003
10
-64.500000000000014
20
32.100000000000023
10
-66.5
20
32.100000000000023
0
LWPOLYLINE
5
227
100
AcDbEntity
8
0
100
AcDbPolyline
90
4
70
1
43
0.0
10
-87.900000000000006
20
34.100000000000023
10
-85.90000000000002
20
34.100000000000023
10
-85.90000000000002
20
32.100000000000023
10
-87.900000000000006
20
32.100000000000023
0
LWPOLYLINE
5
228
100
AcDbEntity
8
0
100
AcDbPolyline
90
4
70
1
43
0.0
10
-91.900000000000034
20
34.10000000000003
10
-89.900000000000006
20
34.10000000000003
10
-89.900000000000006
20
32.100000000000023
10
-91.900000000000034
20
32.100000000000023
0
LWPOLYLINE
5
229
100
AcDbEntity
8
0
100
AcDbPolyline
90
4
70
1
43
0.0
10
89.900000000000006
20
8.7000000000000099
10
91.899999999999991
20
8.7000000000000099
10
91.899999999999991
20
6.7000000000000171
10
89.900000000000006
20
6.7000000000000171
0
LWPOLYLINE
5
230
100
AcDbEntity
8
0
100
AcDbPolyline
90
4
70
1
43
0.0
10
85.900000000000006
20
8.7000000000000277
10
87.899999999999991
20
8.7000000000000277
10
87.899999999999991
20
6.7000000000000171
10
85.900000000000006
20
6.7000000000000171
0
LWPOLYLINE
5
231
100
AcDbEntity
8
0
100
AcDbPolyline
90
4
70
1
43
0.0
10
-41.099999999999994
20
59.500000000000028
10
-39.100000000000001
20
59.500000000000028
10
-39.100000000000001
20
57.500000000000028
10
-41.099999999999994
20
57.500000000000028
0
LWPOLYLINE
5
232
100
AcDbEntity
8
0
100
AcDbPolyline
90
4
70
1
43
0.0
10
-37.099999999999994
20
59.500000000000021
10
-35.099999999999994
20
59.500000000000021
10
-35.099999999999994
20
57.500000000000028
10
-37.099999999999994
20
57.500000000000028
0
LWPOLYLINE
5
233
100
AcDbEntity
8
0
100
AcDbPolyline
90
4
70
1
43
0.0
10
39.100000000000001
20
8.7000000000000099
10
41.099999999999994
20
8.7000000000000099
10
41.099999999999994
20
6.7000000000000171
10
39.100000000000001
20
6.7000000000000171
0
LWPOLYLINE
5
234
100
AcDbEntity
8
0
100
AcDbPolyline
90
4
70
1
43
0.0
10
-114.99999999999999
20
-114.99999999999997
10
114.99999999999994
20
-114.99999999999997
10
115
20
115
10
-115
20
115.00000000000001
0
ENDSEC
0
SECTION
2
OBJECTS
0
DICTIONARY
5
C
100
AcDbDictionary
3
ACAD_GROUP
350
D
3
ACAD_MLINESTYLE
350
17
0
DICTIONARY
5
D
100
AcDbDictionary
0
DICTIONARY
5
1A
330
C
100
AcDbDictionary
0
DICTIONARY
5
17
100
AcDbDictionary
0
ENDSEC
0
EOF
